<svg xmlns="http://www.w3.org/2000/svg" width="300" height="300" viewBox="0 0 300 300">
  <rect width="300" height="300" fill="#2a2e28"/>

  <!-- Central large bloom -->
  <path d="M150 70 Q135 100 120 115 Q135 125 150 150 Q165 125 180 115 Q165 100 150 70Z" fill="#d4a0a0" opacity="0.35"/>
  <path d="M150 70 Q125 95 105 105 Q120 125 150 150Z" fill="#c9878a" opacity="0.25"/>
  <path d="M150 70 Q175 95 195 105 Q180 125 150 150Z" fill="#c9878a" opacity="0.25"/>
  <path d="M150 150 Q135 175 120 185 Q135 192 150 215 Q165 192 180 185 Q165 175 150 150Z" fill="#d4a0a0" opacity="0.30"/>
  <path d="M150 150 Q125 170 110 188 Q135 190 150 215Z" fill="#c9878a" opacity="0.20"/>
  <path d="M150 150 Q175 170 190 188 Q165 190 150 215Z" fill="#c9878a" opacity="0.20"/>
  <!-- Extra petals -->
  <path d="M150 95 Q130 80 118 92 Q128 105 150 95Z" fill="#dab0a8" opacity="0.28"/>
  <path d="M150 95 Q170 80 182 92 Q172 105 150 95Z" fill="#dab0a8" opacity="0.28"/>
  <path d="M150 170 Q130 185 118 175 Q128 162 150 170Z" fill="#dab0a8" opacity="0.22"/>
  <path d="M150 170 Q170 185 182 175 Q172 162 150 170Z" fill="#dab0a8" opacity="0.22"/>
  <!-- Flower center -->
  <circle cx="150" cy="142" r="9" fill="#e8dfd0" opacity="0.40"/>
  <circle cx="150" cy="142" r="5" fill="#c9a227" opacity="0.55"/>
  <circle cx="150" cy="142" r="2" fill="#dbb84d" opacity="0.65"/>

  <!-- LEFT VINE SYSTEM -->
  <path d="M150 142 Q115 130 80 148 Q50 165 25 145 Q10 132 0 142" stroke="#7a8a4b" stroke-width="2.5" fill="none" opacity="0.40"/>
  <path d="M108 138 Q94 118 78 128 Q88 145 108 138Z" fill="#8a9a5b" opacity="0.42"/>
  <path d="M70 152 Q54 136 42 146 Q52 162 70 152Z" fill="#6b7a45" opacity="0.38"/>
  <path d="M38 146 Q24 132 16 142 Q26 155 38 146Z" fill="#8a9a5b" opacity="0.35"/>
  <path d="M95 150 Q82 162 88 175 Q98 160 95 150Z" fill="#6b7a45" opacity="0.30"/>
  <!-- Secondary left vine -->
  <path d="M108 138 Q95 115 75 105 Q60 98 45 105" stroke="#6b7a45" stroke-width="1.5" fill="none" opacity="0.28"/>
  <path d="M82 108 Q72 98 65 106 Q72 115 82 108Z" fill="#8a9a5b" opacity="0.30"/>
  <path d="M58 105 Q50 95 42 102 Q48 112 58 105Z" fill="#6b7a45" opacity="0.25"/>

  <!-- RIGHT VINE SYSTEM -->
  <path d="M150 142 Q185 130 220 148 Q250 165 275 145 Q290 132 300 142" stroke="#7a8a4b" stroke-width="2.5" fill="none" opacity="0.40"/>
  <path d="M192 138 Q206 118 222 128 Q212 145 192 138Z" fill="#8a9a5b" opacity="0.42"/>
  <path d="M230 152 Q246 136 258 146 Q248 162 230 152Z" fill="#6b7a45" opacity="0.38"/>
  <path d="M262 146 Q276 132 284 142 Q274 155 262 146Z" fill="#8a9a5b" opacity="0.35"/>
  <path d="M205 150 Q218 162 212 175 Q202 160 205 150Z" fill="#6b7a45" opacity="0.30"/>
  <!-- Secondary right vine -->
  <path d="M192 138 Q205 115 225 105 Q240 98 255 105" stroke="#6b7a45" stroke-width="1.5" fill="none" opacity="0.28"/>
  <path d="M218 108 Q228 98 235 106 Q228 115 218 108Z" fill="#8a9a5b" opacity="0.30"/>
  <path d="M242 105 Q250 95 258 102 Q252 112 242 105Z" fill="#6b7a45" opacity="0.25"/>

  <!-- TOP STEMS -->
  <path d="M150 70 Q128 40 138 10 Q142 0 150 0" stroke="#7a8a4b" stroke-width="2" fill="none" opacity="0.35"/>
  <path d="M150 70 Q172 40 162 10 Q158 0 150 0" stroke="#7a8a4b" stroke-width="2" fill="none" opacity="0.35"/>
  <path d="M136 42 Q120 30 115 42 Q124 52 136 42Z" fill="#8a9a5b" opacity="0.38"/>
  <path d="M164 42 Q180 30 185 42 Q176 52 164 42Z" fill="#8a9a5b" opacity="0.38"/>
  <path d="M140 22 Q130 12 126 22 Q132 30 140 22Z" fill="#6b7a45" opacity="0.30"/>
  <path d="M160 22 Q170 12 174 22 Q168 30 160 22Z" fill="#6b7a45" opacity="0.30"/>

  <!-- BOTTOM STEMS -->
  <path d="M150 215 Q128 248 138 280 Q142 292 150 300" stroke="#7a8a4b" stroke-width="2" fill="none" opacity="0.35"/>
  <path d="M150 215 Q172 248 162 280 Q158 292 150 300" stroke="#7a8a4b" stroke-width="2" fill="none" opacity="0.35"/>
  <path d="M136 255 Q120 245 115 255 Q124 265 136 255Z" fill="#8a9a5b" opacity="0.38"/>
  <path d="M164 255 Q180 245 185 255 Q176 265 164 255Z" fill="#8a9a5b" opacity="0.38"/>
  <path d="M140 278 Q130 270 126 278 Q132 286 140 278Z" fill="#6b7a45" opacity="0.30"/>
  <path d="M160 278 Q170 270 174 278 Q168 286 160 278Z" fill="#6b7a45" opacity="0.30"/>

  <!-- CORNER FLOWER: top-left -->
  <path d="M40 15 Q30 32 42 42 Q54 32 48 15 Q44 6 40 15Z" fill="#d4a0a0" opacity="0.32"/>
  <path d="M28 28 Q18 36 30 42 Q24 32 28 28Z" fill="#c9878a" opacity="0.22"/>
  <path d="M52 28 Q62 36 50 42 Q56 32 52 28Z" fill="#c9878a" opacity="0.22"/>
  <circle cx="41" cy="30" r="4" fill="#e8dfd0" opacity="0.38"/>
  <circle cx="41" cy="30" r="2" fill="#c9a227" opacity="0.48"/>
  <path d="M18 50 Q6 42 2 54 Q12 58 18 50Z" fill="#8a9a5b" opacity="0.35"/>
  <path d="M52 12 Q60 4 50 0 Q44 8 52 12Z" fill="#8a9a5b" opacity="0.35"/>
  <path d="M14 16 Q6 8 2 18 Q8 24 14 16Z" fill="#6b7a45" opacity="0.28"/>
  <path d="M22 8 Q16 0 10 4 Q14 12 22 8Z" fill="#6b7a45" opacity="0.25"/>

  <!-- CORNER FLOWER: top-right -->
  <path d="M260 15 Q250 32 262 42 Q274 32 268 15 Q264 6 260 15Z" fill="#d4a0a0" opacity="0.32"/>
  <path d="M248 28 Q238 36 250 42 Q244 32 248 28Z" fill="#c9878a" opacity="0.22"/>
  <path d="M272 28 Q282 36 270 42 Q276 32 272 28Z" fill="#c9878a" opacity="0.22"/>
  <circle cx="261" cy="30" r="4" fill="#e8dfd0" opacity="0.38"/>
  <circle cx="261" cy="30" r="2" fill="#c9a227" opacity="0.48"/>
  <path d="M282 50 Q294 42 298 54 Q288 58 282 50Z" fill="#8a9a5b" opacity="0.35"/>
  <path d="M248 12 Q240 4 250 0 Q256 8 248 12Z" fill="#8a9a5b" opacity="0.35"/>
  <path d="M286 16 Q294 8 298 18 Q292 24 286 16Z" fill="#6b7a45" opacity="0.28"/>

  <!-- CORNER FLOWER: bottom-left -->
  <path d="M40 285 Q30 268 42 258 Q54 268 48 285 Q44 294 40 285Z" fill="#d4a0a0" opacity="0.32"/>
  <circle cx="41" cy="272" r="4" fill="#e8dfd0" opacity="0.38"/>
  <circle cx="41" cy="272" r="2" fill="#c9a227" opacity="0.48"/>
  <path d="M18 252 Q6 258 2 246 Q12 242 18 252Z" fill="#8a9a5b" opacity="0.35"/>
  <path d="M14 284 Q6 292 2 282 Q8 276 14 284Z" fill="#6b7a45" opacity="0.28"/>

  <!-- CORNER FLOWER: bottom-right -->
  <path d="M260 285 Q250 268 262 258 Q274 268 268 285 Q264 294 260 285Z" fill="#d4a0a0" opacity="0.32"/>
  <circle cx="261" cy="272" r="4" fill="#e8dfd0" opacity="0.38"/>
  <circle cx="261" cy="272" r="2" fill="#c9a227" opacity="0.48"/>
  <path d="M282 252 Q294 258 298 246 Q288 242 282 252Z" fill="#8a9a5b" opacity="0.35"/>
  <path d="M286 284 Q294 292 298 282 Q292 276 286 284Z" fill="#6b7a45" opacity="0.28"/>

  <!-- SIDE BLOOMS -->
  <path d="M0 142 Q20 126 28 142 Q20 158 0 142Z" fill="#d4a0a0" opacity="0.30"/>
  <circle cx="14" cy="142" r="3" fill="#e8dfd0" opacity="0.35"/>
  <circle cx="14" cy="142" r="1.5" fill="#c9a227" opacity="0.42"/>
  <path d="M300 142 Q280 126 272 142 Q280 158 300 142Z" fill="#d4a0a0" opacity="0.30"/>
  <circle cx="286" cy="142" r="3" fill="#e8dfd0" opacity="0.35"/>
  <circle cx="286" cy="142" r="1.5" fill="#c9a227" opacity="0.42"/>

  <!-- SCROLLWORK / GOLD CURLS -->
  <path d="M82 75 Q65 55 72 38 Q82 50 85 70" stroke="#c9a227" stroke-width="1.5" fill="none" opacity="0.38"/>
  <path d="M218 75 Q235 55 228 38 Q218 50 215 70" stroke="#c9a227" stroke-width="1.5" fill="none" opacity="0.38"/>
  <path d="M82 225 Q65 245 72 262 Q82 250 85 230" stroke="#c9a227" stroke-width="1.5" fill="none" opacity="0.38"/>
  <path d="M218 225 Q235 245 228 262 Q218 250 215 230" stroke="#c9a227" stroke-width="1.5" fill="none" opacity="0.38"/>
  <!-- Inner curls -->
  <path d="M60 62 Q48 48 54 32 Q62 44 60 62Z" stroke="#c9a227" stroke-width="1" fill="none" opacity="0.30"/>
  <path d="M240 62 Q252 48 246 32 Q238 44 240 62Z" stroke="#c9a227" stroke-width="1" fill="none" opacity="0.30"/>
  <path d="M60 238 Q48 252 54 268 Q62 256 60 238Z" stroke="#c9a227" stroke-width="1" fill="none" opacity="0.30"/>
  <path d="M240 238 Q252 252 246 268 Q238 256 240 238Z" stroke="#c9a227" stroke-width="1" fill="none" opacity="0.30"/>
  <!-- Outer curls -->
  <path d="M100 55 Q92 42 98 28 Q105 38 100 55" stroke="#dbb84d" stroke-width="0.8" fill="none" opacity="0.25"/>
  <path d="M200 55 Q208 42 202 28 Q195 38 200 55" stroke="#dbb84d" stroke-width="0.8" fill="none" opacity="0.25"/>

  <!-- GOLD ACCENT DOTS -->
  <circle cx="150" cy="52" r="3" fill="#c9a227" opacity="0.42"/>
  <circle cx="150" cy="235" r="3" fill="#c9a227" opacity="0.42"/>
  <circle cx="55" cy="142" r="2.5" fill="#c9a227" opacity="0.38"/>
  <circle cx="245" cy="142" r="2.5" fill="#c9a227" opacity="0.38"/>
  <circle cx="90" cy="90" r="2.5" fill="#dbb84d" opacity="0.35"/>
  <circle cx="210" cy="90" r="2.5" fill="#dbb84d" opacity="0.35"/>
  <circle cx="90" cy="210" r="2.5" fill="#dbb84d" opacity="0.35"/>
  <circle cx="210" cy="210" r="2.5" fill="#dbb84d" opacity="0.35"/>
  <circle cx="115" cy="115" r="2" fill="#dbb84d" opacity="0.30"/>
  <circle cx="185" cy="115" r="2" fill="#dbb84d" opacity="0.30"/>
  <circle cx="115" cy="170" r="2" fill="#dbb84d" opacity="0.30"/>
  <circle cx="185" cy="170" r="2" fill="#dbb84d" opacity="0.30"/>
  <circle cx="50" cy="105" r="2" fill="#c9a227" opacity="0.28"/>
  <circle cx="250" cy="105" r="2" fill="#c9a227" opacity="0.28"/>
  <circle cx="50" cy="195" r="2" fill="#c9a227" opacity="0.28"/>
  <circle cx="250" cy="195" r="2" fill="#c9a227" opacity="0.28"/>
  <circle cx="70" cy="60" r="1.5" fill="#c9a227" opacity="0.25"/>
  <circle cx="230" cy="60" r="1.5" fill="#c9a227" opacity="0.25"/>
  <circle cx="70" cy="240" r="1.5" fill="#c9a227" opacity="0.25"/>
  <circle cx="230" cy="240" r="1.5" fill="#c9a227" opacity="0.25"/>
  <circle cx="150" cy="10" r="1.5" fill="#dbb84d" opacity="0.28"/>
  <circle cx="150" cy="290" r="1.5" fill="#dbb84d" opacity="0.28"/>
</svg>
